<?xml version="1.0" encoding="utf-8"?>
<!-- Generator: Adobe Illustrator 28.2.0, SVG Export Plug-In . SVG Version: 6.00 Build 0)  -->
<svg version="1.1" id="Layer_1" xmlns="http://www.w3.org/2000/svg" xmlns:xlink="http://www.w3.org/1999/xlink" x="0px" y="0px"
	 viewBox="0 0 1125 1125" style="enable-background:new 0 0 1125 1125;" xml:space="preserve">
<path d="M897.9,616.8c-8.5-52.2-33.3-95.1-74.8-128.2c-1.8-1.5-4.7-2.4-7.1-2.4c-70.8-0.1-141.7-0.1-212.5-0.1c-1.3,0-2.6,0-3.9,0
	c0.9,1.2,1.9,1.5,2.9,1.9c9.2,3.5,17.6,8.3,24.8,15.1c16.7,15.9,24.7,35.8,25.1,58.6c0.3,17-4.4,32.6-15.2,46
	c-18.7,23.4-52,29.4-80.3,25c-34-5.2-63.5-28.6-68.9-63.6c-0.4-2.9-0.7-5.9-0.9-8.8c-0.9-18.2,3.9-36.5,13.9-51.8
	c8.5-12.9,20.5-23.4,34.6-29.7c16.6-7.6,34.7-8.8,52.8-9.2c20.1-0.4,40.2,0.1,60.3,0.1c42.5,0,85,0,127.5,0c10,0,120.5,0,120.5,0
	c0-83.7,0-166.9,0-250.6c-108.2,0-341.5,0-342.6,0c-37.7-0.1-75.4,1.1-112.8,6.6c-30,4.4-59.3,11.2-87.4,22.8
	c-23.7,9.8-45.5,22.8-64.3,40.5c-24.9,23.5-41.1,52.2-50.4,84.9c-8.4,29.3-11.4,59.2-10.6,89.6c0.6,21.7,2.8,43.1,8.4,64.1
	c8.6,32.7,23.2,62,47.4,86.2c2,2,4,2.8,6.9,2.8c20.9-0.1,41.7-0.1,62.6,0c1.4,0,3.4,0.2,4,1.1c3.4,4.7,6.4,9.7,10,15.3
	c-46.6,0-92.4,0-138.1,0c0,83.1,0,165.7,0,248.7c109.4,0,349.6-0.1,352.9-0.1c43.1,0.5,86.1-1.3,128.7-9.1
	c31.7-5.8,62.4-14.7,90.9-30c39.4-21,68.1-51.8,83.8-94C901.9,705.7,905.2,661.6,897.9,616.8z"/>
</svg>
